<svg version="1.1" xmlns="http://www.w3.org/2000/svg" width="497" height="209">
<path d="M0 0 C164.01 0 328.02 0 497 0 C497 68.97 497 137.94 497 209 C332.99 209 168.98 209 0 209 C0 140.03 0 71.06 0 0 Z " fill="#EDCBE1" transform="translate(0,0)"/>
<path d="M0 0 C1.40144005 -0.00934319 1.40144005 -0.00934319 2.83119202 -0.01887512 C3.83750168 -0.00966537 4.84381134 -0.00045563 5.88061523 0.0090332 C6.91484116 0.0085347 7.94906708 0.00803619 9.01463318 0.00752258 C11.20101849 0.00986348 13.38740647 0.01959287 15.57373047 0.03613281 C18.92952425 0.05974631 22.28452502 0.05669116 25.64038086 0.05004883 C27.76213041 0.05562471 29.8838766 0.06273403 32.00561523 0.0715332 C33.01394913 0.0706218 34.02228302 0.06971039 35.06117249 0.06877136 C35.99231369 0.07830338 36.9234549 0.08783539 37.8828125 0.09765625 C38.70427261 0.10226364 39.52573273 0.10687103 40.37208557 0.11161804 C42.37670898 0.37231445 42.37670898 0.37231445 44.37670898 2.37231445 C44.57677201 5.36193549 44.65643821 8.25693795 44.64233398 11.24731445 C44.64520416 12.56771729 44.64520416 12.56771729 44.64813232 13.91479492 C44.6494945 15.7775908 44.6457958 17.64039615 44.63745117 19.50317383 C44.62675205 22.36081181 44.6373453 25.21782111 44.65014648 28.07543945 C44.6488249 29.88273251 44.64626251 31.69002518 44.64233398 33.49731445 C44.64638245 34.35566895 44.65043091 35.21402344 44.65460205 36.09838867 C44.60662643 42.14239701 44.60662643 42.14239701 42.37670898 44.37231445 C40.32739258 44.62628174 40.32739258 44.62628174 37.77514648 44.63110352 C36.82075684 44.63740784 35.86636719 44.64371216 34.88305664 44.65020752 C33.84971191 44.64615906 32.81636719 44.6421106 31.75170898 44.63793945 C30.69387207 44.63985291 29.63603516 44.64176636 28.54614258 44.64373779 C26.30671959 44.64510047 24.06728873 44.64139827 21.82788086 44.63305664 C18.39085221 44.62235848 14.95434629 44.63294933 11.51733398 44.64575195 C9.34545783 44.64443037 7.17358199 44.64186801 5.00170898 44.63793945 C3.96836426 44.64198792 2.93501953 44.64603638 1.87036133 44.65020752 C0.91597168 44.6439032 -0.03841797 44.63759888 -1.02172852 44.63110352 C-1.86396973 44.62951233 -2.70621094 44.62792114 -3.57397461 44.62628174 C-5.62329102 44.37231445 -5.62329102 44.37231445 -7.62329102 42.37231445 C-7.83557553 39.46656399 -7.92725197 36.65857517 -7.92407227 33.7512207 C-7.92835739 32.89551987 -7.93264252 32.03981903 -7.9370575 31.15818787 C-7.9428057 29.34667852 -7.94329746 27.53514609 -7.93896484 25.72363281 C-7.93580742 22.9492254 -7.95924843 20.17588659 -7.98461914 17.40161133 C-7.98689231 15.64314914 -7.98759555 13.88468407 -7.98657227 12.1262207 C-7.99578201 11.29490128 -8.00499176 10.46358185 -8.01448059 9.60707092 C-7.96818097 3.85285464 -7.96818097 3.85285464 -6.38897705 1.65252686 C-4.1185533 0.00635387 -2.79071173 -0.00213625 0 0 Z " fill="#E5BEE5" transform="translate(77.623291015625,76.627685546875)"/>
<path d="M0 0 C1.40144005 -0.00934319 1.40144005 -0.00934319 2.83119202 -0.01887512 C3.83750168 -0.00966537 4.84381134 -0.00045563 5.88061523 0.0090332 C6.91484116 0.0085347 7.94906708 0.00803619 9.01463318 0.00752258 C11.20101849 0.00986348 13.38740647 0.01959287 15.57373047 0.03613281 C18.92952425 0.05974631 22.28452502 0.05669116 25.64038086 0.05004883 C27.76213041 0.05562471 29.8838766 0.06273403 32.00561523 0.0715332 C33.01394913 0.0706218 34.02228302 0.06971039 35.06117249 0.06877136 C35.99231369 0.07830338 36.9234549 0.08783539 37.8828125 0.09765625 C38.70427261 0.10226364 39.52573273 0.10687103 40.37208557 0.11161804 C42.37670898 0.37231445 42.37670898 0.37231445 44.37670898 2.37231445 C44.57677201 5.36193549 44.65643821 8.25693795 44.64233398 11.24731445 C44.64520416 12.56771729 44.64520416 12.56771729 44.64813232 13.91479492 C44.6494945 15.7775908 44.6457958 17.64039615 44.63745117 19.50317383 C44.62675205 22.36081181 44.6373453 25.21782111 44.65014648 28.07543945 C44.6488249 29.88273251 44.64626251 31.69002518 44.64233398 33.49731445 C44.64638245 34.35566895 44.65043091 35.21402344 44.65460205 36.09838867 C44.60662643 42.14239701 44.60662643 42.14239701 42.37670898 44.37231445 C40.32739258 44.62628174 40.32739258 44.62628174 37.77514648 44.63110352 C36.82075684 44.63740784 35.86636719 44.64371216 34.88305664 44.65020752 C33.84971191 44.64615906 32.81636719 44.6421106 31.75170898 44.63793945 C30.69387207 44.63985291 29.63603516 44.64176636 28.54614258 44.64373779 C26.30671959 44.64510047 24.06728873 44.64139827 21.82788086 44.63305664 C18.39085221 44.62235848 14.95434629 44.63294933 11.51733398 44.64575195 C9.34545783 44.64443037 7.17358199 44.64186801 5.00170898 44.63793945 C3.96836426 44.64198792 2.93501953 44.64603638 1.87036133 44.65020752 C0.91597168 44.6439032 -0.03841797 44.63759888 -1.02172852 44.63110352 C-1.86396973 44.62951233 -2.70621094 44.62792114 -3.57397461 44.62628174 C-5.62329102 44.37231445 -5.62329102 44.37231445 -7.62329102 42.37231445 C-7.83557553 39.46656399 -7.92725197 36.65857517 -7.92407227 33.7512207 C-7.92835739 32.89551987 -7.93264252 32.03981903 -7.9370575 31.15818787 C-7.9428057 29.34667852 -7.94329746 27.53514609 -7.93896484 25.72363281 C-7.93580742 22.9492254 -7.95924843 20.17588659 -7.98461914 17.40161133 C-7.98689231 15.64314914 -7.98759555 13.88468407 -7.98657227 12.1262207 C-7.99578201 11.29490128 -8.00499176 10.46358185 -8.01448059 9.60707092 C-7.96818097 3.85285464 -7.96818097 3.85285464 -6.38897705 1.65252686 C-4.1185533 0.00635387 -2.79071173 -0.00213625 0 0 Z M-3.62329102 4.37231445 C-3.62329102 16.25231445 -3.62329102 28.13231445 -3.62329102 40.37231445 C10.89670898 40.37231445 25.41670898 40.37231445 40.37670898 40.37231445 C40.37670898 28.49231445 40.37670898 16.61231445 40.37670898 4.37231445 C25.85670898 4.37231445 11.33670898 4.37231445 -3.62329102 4.37231445 Z " fill="#701FA2" transform="translate(77.623291015625,76.627685546875)"/>
<path d="M0 0 C3.526875 -0.12375 3.526875 -0.12375 7.125 -0.25 C7.85348145 -0.28641602 8.58196289 -0.32283203 9.33251953 -0.36035156 C14.38684642 -0.44534431 17.13672548 0.82953155 21 4 C22.55743688 7.11487377 22.26686231 10.39575809 22.3125 13.8125 C22.34150391 14.52470703 22.37050781 15.23691406 22.40039062 15.97070312 C22.44479723 19.66328316 22.13171026 21.78797175 20.16796875 24.94921875 C16.31024811 28.59841395 12.30902295 28.12268624 7.3125 28.0625 C3.6928125 28.0315625 3.6928125 28.0315625 0 28 C0 18.76 0 9.52 0 0 Z " fill="#101117" transform="translate(257,84)"/>
<path d="M0 0 C2.4375 1 2.4375 1 4 2 C4 1.34 4 0.68 4 0 C6.475 0.495 6.475 0.495 9 1 C9.08741124 4.56234428 9.14052896 8.12441108 9.1875 11.6875 C9.21263672 12.69490234 9.23777344 13.70230469 9.26367188 14.74023438 C9.35596127 24.06146354 9.35596127 24.06146354 6 28 C2.57823311 30.56632517 -0.84640421 30.36435051 -5 30 C-7.875 28.8125 -7.875 28.8125 -10 27 C-10.8125 24.3125 -10.8125 24.3125 -11 22 C-8.625 21.8125 -8.625 21.8125 -6 22 C-5.34 22.99 -4.68 23.98 -4 25 C-1.41619823 25.25030977 -1.41619823 25.25030977 1 25 C1.33 23.35 1.66 21.7 2 20 C1.34 20.33 0.68 20.66 0 21 C-3.85633638 21.51417818 -5.5518122 21.28255318 -8.875 19.1875 C-11.97498027 14.5375296 -11.86343573 10.43312861 -11 5 C-8.37334414 -0.35837795 -5.7312521 -0.71640651 0 0 Z " fill="#17171E" transform="translate(191,91)"/>
<path d="M0 0 C1.65 0 3.3 0 5 0 C5 0.66 5 1.32 5 2 C5.99 1.34 6.98 0.68 8 0 C12.20851192 -0.54554784 14.29799985 -0.43314903 17.9375 1.8125 C20.95662001 6.47841274 20.85116344 10.59308555 20 16 C18.5 19.1875 18.5 19.1875 16 21 C12.50930484 21.57258438 9.22816959 21.61408479 6 20 C6.020625 21.299375 6.04125 22.59875 6.0625 23.9375 C6.08399454 25.29165633 6.07148199 26.64756083 6 28 C5.67 28.33 5.34 28.66 5 29 C3.35 29 1.7 29 0 29 C0 19.43 0 9.86 0 0 Z " fill="#18181E" transform="translate(386,91)"/>
<path d="M0 0 C2.87029869 1.79393668 4.49131638 2.98263276 6 6 C6.23739868 10.82710643 6.41748143 14.67398059 4 19 C0.79375113 21.13749925 -0.22458103 21.29574999 -3.9375 21.3125 C-4.79214844 21.32925781 -5.64679688 21.34601563 -6.52734375 21.36328125 C-9.50318275 20.92607268 -10.83857084 20.06472092 -13 18 C-14.45371006 13.63886982 -14.61627299 9.55316989 -14 5 C-10.54419072 -0.57388593 -6.10736255 -1.22811095 0 0 Z " fill="#14151B" transform="translate(376,91)"/>
<path d="M0 0 C1.98 0 3.96 0 6 0 C6.33 2.64 6.66 5.28 7 8 C7.33 7.67 7.66 7.34 8 7 C11.85802462 6.62903609 14.27394146 6.60615242 17.71484375 8.47265625 C20.57248558 11.63315926 20.52752717 13.27266591 20.43945312 17.39453125 C20.39755859 18.17183594 20.35566406 18.94914062 20.3125 19.75 C20.28994141 20.54277344 20.26738281 21.33554688 20.24414062 22.15234375 C20.18540471 24.1023762 20.09572654 26.05143312 20 28 C18.35 28 16.7 28 15 28 C14.67 22.72 14.34 17.44 14 12 C12.02 12 10.04 12 8 12 C6.00383446 13.99616554 6.59016573 17.81701963 6.4375 20.5625 C6.39431641 21.27341797 6.35113281 21.98433594 6.30664062 22.71679688 C6.20028223 24.47761912 6.09961154 26.2387832 6 28 C4.02 28 2.04 28 0 28 C0 18.76 0 9.52 0 0 Z " fill="#1A1920" transform="translate(205,84)"/>
<path d="M0 0 C2.9375 2.0625 2.9375 2.0625 5 5 C5.33 7.31 5.66 9.62 6 12 C1.05 12 -3.9 12 -9 12 C-8.34 13.32 -7.68 14.64 -7 16 C-5.00045254 16.04254356 -2.99958364 16.04080783 -1 16 C-0.67 15.67 -0.34 15.34 0 15 C1.66617115 14.95936168 3.33388095 14.957279 5 15 C4.75 16.875 4.75 16.875 4 19 C-0.12147828 21.58960139 -4.27036255 21.72161748 -9 21 C-12.03215675 18.80168636 -12.81654398 17.55036806 -14 14 C-14.57279236 6.8973747 -14.57279236 6.8973747 -12.125 3.0625 C-8.50891745 -0.44722718 -4.89120072 -0.81520012 0 0 Z " fill="#15151B" transform="translate(424,91)"/>
<path d="M0 0 C2.9375 2.0625 2.9375 2.0625 5 5 C5.33 7.31 5.66 9.62 6 12 C1.05 12 -3.9 12 -9 12 C-8.34 13.32 -7.68 14.64 -7 16 C-5.00045254 16.04254356 -2.99958364 16.04080783 -1 16 C-0.67 15.67 -0.34 15.34 0 15 C1.66617115 14.95936168 3.33388095 14.957279 5 15 C4.75 16.875 4.75 16.875 4 19 C-0.12147828 21.58960139 -4.27036255 21.72161748 -9 21 C-12.03215675 18.80168636 -12.81654398 17.55036806 -14 14 C-14.57279236 6.8973747 -14.57279236 6.8973747 -12.125 3.0625 C-8.50891745 -0.44722718 -4.89120072 -0.81520012 0 0 Z " fill="#15151B" transform="translate(342,91)"/>
<path d="M0 0 C2.8100346 1.79363911 4.50940468 3.01880935 6 6 C6 7.98 6 9.96 6 12 C1.38 12 -3.24 12 -8 12 C-7.01 13.65 -6.02 15.3 -5 17 C-2.24358584 16.50243908 -2.24358584 16.50243908 0 15 C1.99958364 14.95919217 4.00045254 14.95745644 6 15 C4.63016497 18.16115776 4.0109362 18.9927092 1 21 C-3.60130531 21.81858428 -7.02174407 21.5789678 -11.0625 19.1875 C-13.90889662 14.50471846 -13.97667772 10.33970525 -13 5 C-9.73232243 -0.20786113 -5.80755856 -1.30230101 0 0 Z " fill="#13131A" transform="translate(297,91)"/>
<path d="M0 0 C1.98 0 3.96 0 6 0 C6 7.59 6 15.18 6 23 C10.29 23 14.58 23 19 23 C19 24.65 19 26.3 19 28 C12.73 28 6.46 28 0 28 C0 18.76 0 9.52 0 0 Z " fill="#15151C" transform="translate(147,84)"/>
<path d="M0 0 C2.97 0 5.94 0 9 0 C12 3 12 3 12.3984375 5.55859375 C12.39070313 6.50863281 12.38296875 7.45867187 12.375 8.4375 C12.38273437 9.38496094 12.39046875 10.33242187 12.3984375 11.30859375 C11.91197491 14.59460085 11.60549938 15.88864705 9 18 C6.03 18 3.06 18 0 18 C0 12.06 0 6.12 0 0 Z " fill="#E8C9D8" transform="translate(262,89)"/>
<path d="M0 0 C1.65 0 3.3 0 5 0 C6.65 3.96 8.3 7.92 10 12 C11.71017726 9.4347341 12.90417811 7.12039035 14.125 4.3125 C14.47820312 3.50425781 14.83140625 2.69601563 15.1953125 1.86328125 C15.46085937 1.24839844 15.72640625 0.63351563 16 0 C17.65 0 19.3 0 21 0 C20.301897 4.50276432 18.71324524 8.55578171 17 12.75 C16.72671875 13.43449219 16.4534375 14.11898437 16.171875 14.82421875 C14.13600498 19.86399502 14.13600498 19.86399502 13 21 C11.33382885 21.04063832 9.66611905 21.042721 8 21 C4.69582578 14.13045202 1.966369 7.36988707 0 0 Z " fill="#18181E" transform="translate(305,91)"/>
<path d="M0 0 C1.65 0 3.3 0 5 0 C5 2.31 5 4.62 5 7 C6.98 7 8.96 7 11 7 C11 8.32 11 9.64 11 11 C9.02 11 7.04 11 5 11 C5.33 14.63 5.66 18.26 6 22 C8.475 22.99 8.475 22.99 11 24 C11 25.32 11 26.64 11 28 C4.375 28.25 4.375 28.25 1 26 C-0.09506492 22.71480525 -0.09960608 20.26336585 -0.0625 16.8125 C-0.05347656 15.72582031 -0.04445312 14.63914062 -0.03515625 13.51953125 C-0.02355469 12.68808594 -0.01195312 11.85664062 0 11 C-1.32 11 -2.64 11 -4 11 C-4 9.68 -4 8.36 -4 7 C-2.68 7 -1.36 7 0 7 C0 4.69 0 2.38 0 0 Z " fill="#0E0F15" transform="translate(232,84)"/>
<path d="M0 0 C4.33333333 0 8.66666667 0 13 0 C13 1.65 13 3.3 13 5 C10.69 5.66 8.38 6.32 6 7 C5.67 11.62 5.34 16.24 5 21 C3.35 21 1.7 21 0 21 C0 14.07 0 7.14 0 0 Z " fill="#0F1016" transform="translate(434,91)"/>
<path d="M0 0 C1.65 0 3.3 0 5 0 C5 9.24 5 18.48 5 28 C3.35 28 1.7 28 0 28 C0 18.76 0 9.52 0 0 Z " fill="#090B11" transform="translate(352,84)"/>
<path d="M0 0 C3.82809678 -0.30024289 6.30050717 -0.37788693 9.71875 1.46875 C12.56987004 4.63232155 12.52749509 6.27416708 12.43945312 10.39453125 C12.39755859 11.17183594 12.35566406 11.94914062 12.3125 12.75 C12.27866211 13.93916016 12.27866211 13.93916016 12.24414062 15.15234375 C12.18540471 17.1023762 12.09572654 19.05143312 12 21 C10.35 21 8.7 21 7 21 C6.67 15.72 6.34 10.44 6 5 C3.69 4.67 1.38 4.34 -1 4 C-0.67 2.68 -0.34 1.36 0 0 Z " fill="#0D0F15" transform="translate(213,91)"/>
<path d="M0 0 C5.40489519 1.52012677 8.98492628 5.27385218 13 9 C11.52934075 12.58522876 9.59934458 14.44386096 6.5625 16.8125 C5.78003906 17.43769531 4.99757813 18.06289062 4.19140625 18.70703125 C3.46824219 19.13371094 2.74507813 19.56039062 2 20 C1.01 19.67 0.02 19.34 -1 19 C0.49097658 15.2047869 2.75700849 13.38957269 6 11 C4.54744301 7.17053157 2.57104439 5.87949705 -1 4 C-0.67 2.68 -0.34 1.36 0 0 Z " fill="#8727B3" transform="translate(83,89)"/>
<path d="M0 0 C2.5 -0.3125 2.5 -0.3125 5 0 C7 2 7 2 7.23046875 4.34765625 C7.20919922 5.69150391 7.20919922 5.69150391 7.1875 7.0625 C7.17783203 8.41021484 7.17783203 8.41021484 7.16796875 9.78515625 C7 12 7 12 6 13 C3.0625 13.25 3.0625 13.25 0 13 C-2.45811625 9.31282562 -2.31118164 7.35654296 -2 3 C-1.34 2.01 -0.68 1.02 0 0 Z " fill="#E8CDD2" transform="translate(369,95)"/>
<path d="M0 0 C1.65 0 3.3 0 5 0 C5 6.93 5 13.86 5 21 C3.35 21 1.7 21 0 21 C0 14.07 0 7.14 0 0 Z " fill="#0C0D14" transform="translate(170,91)"/>
<path d="M0 0 C3.29714793 0.32971479 4.6226839 0.6226839 7 3 C7.31537716 7.33643601 7.44897847 9.32653229 5 13 C2.5 13.3125 2.5 13.3125 0 13 C-2 11 -2 11 -2.265625 8.90625 C-2.25789063 7.71515625 -2.25789063 7.71515625 -2.25 6.5 C-2.25515625 5.7059375 -2.2603125 4.911875 -2.265625 4.09375 C-2 2 -2 2 0 0 Z " fill="#E7CBD1" transform="translate(394,95)"/>
<path d="M0 0 C2.5 -0.3125 2.5 -0.3125 5 0 C7 2 7 2 7.3125 5.9375 C7.24008358 8.59276857 7.14641341 9.75841787 5.75 12.0625 C4 13 4 13 1.9375 12.8125 C0 12 0 12 -2 10 C-2.31537716 5.66356399 -2.44897847 3.67346771 0 0 Z " fill="#E1C1D6" transform="translate(187,95)"/>
<path d="M0 0 C3.96 0 7.92 0 12 0 C12 1.32 12 2.64 12 4 C8.04 4 4.08 4 0 4 C0 2.68 0 1.36 0 0 Z " fill="#5A108B" transform="translate(97,105)"/>
<path d="M0 0 C0.125 2.375 0.125 2.375 0 5 C-2 7 -2 7 -4.625 7.125 C-5.40875 7.08375 -6.1925 7.0425 -7 7 C-7.66 5.68 -8.32 4.36 -9 3 C-7.68825887 2.4980125 -6.37558403 1.99846423 -5.0625 1.5 C-4.33160156 1.2215625 -3.60070312 0.943125 -2.84765625 0.65625 C-1 0 -1 0 0 0 Z " fill="#DEC1D3" transform="translate(194,110)"/>
<path d="M0 0 C1.98 0 3.96 0 6 0 C6.33 1.65 6.66 3.3 7 5 C4.03 5 1.06 5 -2 5 C-1.34 3.35 -0.68 1.7 0 0 Z " fill="#DBC1C5" transform="translate(417,95)"/>
<path d="M0 0 C1.98 0 3.96 0 6 0 C6.33 1.65 6.66 3.3 7 5 C4.03 5 1.06 5 -2 5 C-1.34 3.35 -0.68 1.7 0 0 Z " fill="#D9BEC6" transform="translate(335,95)"/>
<path d="M0 0 C2.5625 0.1875 2.5625 0.1875 4.5625 2.1875 C4.5625 3.1775 4.5625 4.1675 4.5625 5.1875 C1.5925 5.1875 -1.3775 5.1875 -4.4375 5.1875 C-3.20220588 0.24632353 -3.20220588 0.24632353 0 0 Z " fill="#DDC1CC" transform="translate(293.4375,94.8125)"/>
<path d="M0 0 C1.65 0 3.3 0 5 0 C5 1.65 5 3.3 5 5 C3.35 5 1.7 5 0 5 C0 3.35 0 1.7 0 0 Z " fill="#15151C" transform="translate(170,83)"/>

</svg>
